<?xml version="1.0" standalone="no"?><svg xmlns="http://www.w3.org/2000/svg" viewBox="0 0 1440 320" style="user-select: auto;"><path fill="#B1E1FF" fill-opacity="1" d="M0,160L48,144C96,128,192,96,288,96C384,96,480,128,576,160C672,192,768,224,864,245.3C960,267,1056,277,1152,277.3C1248,277,1344,267,1392,261.3L1440,256L1440,320L1392,320C1344,320,1248,320,1152,320C1056,320,960,320,864,320C768,320,672,320,576,320C480,320,384,320,288,320C192,320,96,320,48,320L0,320Z" style="user-select: auto;"></path></svg>